<svg width="169" height="47" viewBox="0 0 169 47" fill="none" xmlns="http://www.w3.org/2000/svg">
<g clip-path="url(#clip0)">
<path d="M20.9997 23.5813V46.0229L1.50183 34.8492V12.3142L20.9997 23.5813Z" stroke="#6100FF" stroke-width="3" stroke-miterlimit="10" stroke-linecap="round" stroke-linejoin="round"/>
<path d="M21.0018 23.5436L1.50391 12.2757L21.0018 1.10205L40.4997 12.2757V12.2904L21.0025 23.5526" stroke="#6100FF" stroke-width="3" stroke-miterlimit="10" stroke-linecap="round" stroke-linejoin="round"/>
<path d="M40.4977 12.3289V34.6629L38.6954 35.7127L21.0005 46.004V23.5911L40.4977 12.3289Z" stroke="#6100FF" stroke-width="3" stroke-miterlimit="10" stroke-linecap="round" stroke-linejoin="round"/>
<path d="M21.5513 21.9347L18.0654 19.9258L16.6706 22.3372L20.1564 24.346L21.5513 21.9347Z" fill="white"/>
<path d="M22.3966 27.3354V23.3176H19.6069V27.3354H22.3966Z" fill="white"/>
<path d="M21.8459 24.347L25.3318 22.3381L23.9369 19.9267L20.4511 21.9356L21.8459 24.347Z" fill="white"/>
<path d="M20.1569 24.347H21.8452L21.7746 22.5913L20.3476 22.2886L20.1569 24.347Z" fill="white"/>
<path d="M21.5511 44.5877L18.0653 42.5789L16.6705 44.9903L20.1563 46.9991L21.5511 44.5877Z" fill="white"/>
<path d="M21.8458 47.0008L25.3317 44.9919L23.9368 42.5805L20.451 44.5894L21.8458 47.0008Z" fill="white"/>
<path d="M20.1569 47.0001H21.8452L21.7746 45.2444L20.3476 44.9417L20.1569 47.0001Z" fill="white"/>
<path d="M20.4512 2.41129L23.937 4.42017L25.3319 2.00877L21.846 -0.000105269L20.4512 2.41129Z" fill="white"/>
<path d="M20.1566 0.000402764L16.6708 2.00928L18.0656 4.42067L21.5515 2.4118L20.1566 0.000402764Z" fill="white"/>
<path d="M21.8453 0H20.157L20.2276 1.75567L21.6553 2.0584L21.8453 0Z" fill="white"/>
<path d="M39.7367 33.3858L36.2734 35.4329L37.6948 37.8287L41.1581 35.7816L39.7367 33.3858Z" fill="white"/>
<path d="M41.9928 34.3135L41.9481 30.2961L39.1587 30.3271L39.2034 34.3444L41.9928 34.3135Z" fill="white"/>
<path d="M41.1616 35.7818L41.989 34.3135L40.4223 33.5142L39.4579 34.6072L41.1616 35.7818Z" fill="white"/>
<path d="M0.826248 35.784L4.28955 37.8311L5.71091 35.4352L2.2476 33.3882L0.826248 35.784Z" fill="white"/>
<path d="M2.79077 34.343L2.83545 30.3257L0.0460256 30.2948L0.00134566 34.3121L2.79077 34.343Z" fill="white"/>
<path d="M0.828106 35.7818L0 34.3135L1.56746 33.5142L2.53184 34.6072L0.828106 35.7818Z" fill="white"/>
<path d="M0.158613 12.3497L0.17627 16.3674L2.96597 16.3552L2.94832 12.3375L0.158613 12.3497Z" fill="white"/>
<path d="M2.40143 13.2922L5.87842 11.2681L4.47297 8.8628L0.995977 10.8869L2.40143 13.2922Z" fill="white"/>
<path d="M0.158691 12.3497L0.995882 10.887L2.48787 11.8189L2.04342 13.2062L0.158691 12.3497Z" fill="white"/>
<path d="M39.2102 12.337L39.1925 16.3547L41.9822 16.367L41.9999 12.3492L39.2102 12.337Z" fill="white"/>
<path d="M41.1616 10.8869L37.6846 8.86279L36.2791 11.2681L39.7561 13.2922L41.1616 10.8869Z" fill="white"/>
<path d="M41.9999 12.3497L41.162 10.887L39.67 11.8189L40.1152 13.2062L41.9999 12.3497Z" fill="white"/>
</g>
<path d="M71.6638 26.592C71.6638 27.152 71.5358 27.608 71.2798 27.96C71.1198 28.2 70.8478 28.52 70.4638 28.92C70.0798 29.304 69.7678 29.56 69.5278 29.688C69.0158 29.976 68.5198 30.12 68.0398 30.12H63.8638C62.8238 30.12 61.8078 29.456 60.8158 28.128C60.7198 28 60.5758 27.752 60.3838 27.384L62.7598 26.592C63.0798 27.04 63.4318 27.408 63.8158 27.696C63.8478 27.712 63.9038 27.72 63.9838 27.72H67.9198L68.0638 27.696C68.2398 27.6 68.4638 27.416 68.7358 27.144C69.0078 26.872 69.1438 26.688 69.1438 26.592V25.176C69.1438 24.936 69.0478 24.8 68.8558 24.768L62.6158 22.992C62.0238 22.832 61.5598 22.504 61.2238 22.008C60.9038 21.512 60.7438 20.968 60.7438 20.376V19.08C60.7438 18.52 60.8638 18.064 61.1038 17.712C61.2638 17.488 61.5358 17.184 61.9198 16.8C62.3198 16.4 62.6398 16.128 62.8798 15.984C63.3918 15.696 63.8878 15.552 64.3678 15.552H67.9198C68.9438 15.552 69.9598 16.216 70.9678 17.544C71.1278 17.768 71.2878 18.048 71.4478 18.384L69.0238 19.08C68.6558 18.552 68.3038 18.184 67.9678 17.976C67.9518 17.96 67.9038 17.952 67.8238 17.952H64.4398L64.2958 17.976C64.1038 18.072 63.8798 18.248 63.6238 18.504C63.3838 18.76 63.2638 18.936 63.2638 19.032V20.232C63.2638 20.472 63.3518 20.608 63.5278 20.64L69.7918 22.464C70.3678 22.624 70.8238 22.96 71.1598 23.472C71.4958 23.968 71.6638 24.504 71.6638 25.08V26.592Z" fill="white"/>
<path d="M84.2947 18.048H80.4067V30H77.8867V18.048H73.9987V15.648H84.2947V18.048Z" fill="white"/>
<path d="M97.0864 30H94.3984L93.3424 26.952H87.8944L86.8384 30H84.1504L89.1664 15.648H92.0944L97.0864 30ZM92.5504 24.552L90.6304 18.888L88.6864 24.552H92.5504Z" fill="white"/>
<path d="M109.13 21.072C109.13 21.616 108.986 22.104 108.698 22.536C108.586 22.696 108.386 22.92 108.098 23.208C107.81 23.48 107.578 23.68 107.402 23.808C107.194 23.968 106.986 24.08 106.778 24.144L109.634 30H106.898L104.234 24.336H101.474V30H98.9542V15.648H105.698C106.338 15.648 106.906 15.824 107.402 16.176C107.562 16.288 107.786 16.496 108.074 16.8C108.378 17.104 108.586 17.336 108.698 17.496C108.986 17.928 109.13 18.416 109.13 18.96V21.072ZM106.61 21.048V18.984C106.61 18.904 106.602 18.848 106.586 18.816C106.314 18.336 106.058 18.08 105.818 18.048H101.474V21.936H105.698C105.81 21.936 105.962 21.848 106.154 21.672C106.346 21.496 106.49 21.32 106.586 21.144C106.602 21.112 106.61 21.08 106.61 21.048Z" fill="white"/>
<path d="M128.677 27.216C128.517 27.584 128.349 27.888 128.173 28.128C127.181 29.456 126.165 30.12 125.125 30.12H122.125C121.597 30.12 121.101 29.976 120.637 29.688C120.397 29.544 120.085 29.28 119.701 28.896C119.317 28.512 119.045 28.208 118.885 27.984C118.629 27.6 118.501 27.144 118.501 26.616V19.056C118.501 18.544 118.629 18.096 118.885 17.712C119.045 17.472 119.317 17.16 119.701 16.776C120.101 16.376 120.413 16.112 120.637 15.984C121.149 15.696 121.645 15.552 122.125 15.552H125.125C126.149 15.552 127.165 16.216 128.173 17.544C128.269 17.672 128.437 17.952 128.677 18.384L126.229 19.08C125.749 18.488 125.389 18.12 125.149 17.976C125.133 17.96 125.101 17.952 125.053 17.952H122.221L122.125 17.976C121.709 18.2 121.349 18.552 121.045 19.032C121.029 19.064 121.021 19.152 121.021 19.296V26.592C121.021 26.72 121.149 26.912 121.405 27.168C121.677 27.408 121.917 27.584 122.125 27.696C122.141 27.712 122.197 27.72 122.293 27.72H125.029C125.077 27.72 125.117 27.712 125.149 27.696C125.293 27.632 125.453 27.504 125.629 27.312C125.821 27.12 125.973 26.944 126.085 26.784L126.229 26.568L128.677 27.216Z" fill="white"/>
<path d="M140.431 26.976C140.431 27.584 140.295 28.072 140.023 28.44C139.735 28.872 139.351 29.264 138.871 29.616C138.391 29.952 137.807 30.12 137.119 30.12H134.863C134.191 30.12 133.615 29.952 133.135 29.616C132.959 29.488 132.743 29.296 132.487 29.04C132.231 28.784 132.055 28.584 131.959 28.44C131.687 28.072 131.551 27.584 131.551 26.976V22.656C131.551 22.048 131.687 21.56 131.959 21.192C132.215 20.808 132.607 20.424 133.135 20.04C133.631 19.688 134.207 19.512 134.863 19.512H137.119C137.791 19.512 138.375 19.688 138.871 20.04C139.367 20.408 139.751 20.792 140.023 21.192C140.295 21.56 140.431 22.048 140.431 22.656V26.976ZM133.951 22.728V27.096C133.951 27.272 134.215 27.512 134.743 27.816C134.775 27.832 134.823 27.84 134.887 27.84H137.095C137.127 27.84 137.175 27.824 137.239 27.792C137.751 27.504 138.015 27.272 138.031 27.096V22.728C138.031 22.68 138.023 22.632 138.007 22.584C137.815 22.264 137.551 22.008 137.215 21.816C137.183 21.8 137.143 21.792 137.095 21.792H134.887C134.839 21.792 134.799 21.8 134.767 21.816C134.415 22.024 134.151 22.28 133.975 22.584L133.951 22.728Z" fill="white"/>
<path d="M151.745 21.84L149.513 22.512C149.145 22.032 148.785 21.792 148.433 21.792H147.137C146.705 21.792 146.217 22.136 145.673 22.824V30H143.273V21.768L143.081 19.632H145.409L145.529 20.208C146.169 19.744 146.681 19.512 147.065 19.512H148.505C149.113 19.512 149.705 19.712 150.281 20.112C150.537 20.304 150.817 20.576 151.121 20.928C151.425 21.264 151.633 21.568 151.745 21.84Z" fill="white"/>
<path d="M162.161 26.952C162.161 27.544 162.017 28.04 161.729 28.44C161.361 28.952 160.977 29.344 160.577 29.616C160.097 29.952 159.521 30.12 158.849 30.12H157.097C156.681 30.12 156.209 29.936 155.681 29.568V33.912H153.281V21.768L153.065 19.632H155.441L155.537 20.16C156.097 19.728 156.617 19.512 157.097 19.512H158.849C159.521 19.512 160.097 19.688 160.577 20.04C161.057 20.392 161.441 20.784 161.729 21.216C162.017 21.632 162.161 22.128 162.161 22.704V26.952ZM159.761 26.904V22.752L159.737 22.608C159.561 22.304 159.305 22.048 158.969 21.84C158.905 21.808 158.857 21.792 158.825 21.792H157.169C157.041 21.792 156.801 21.928 156.449 22.2C156.113 22.456 155.857 22.68 155.681 22.872V26.784C155.857 26.976 156.113 27.2 156.449 27.456C156.801 27.712 157.041 27.84 157.169 27.84H158.825C158.889 27.84 158.937 27.832 158.969 27.816C159.289 27.608 159.545 27.344 159.737 27.024C159.753 26.992 159.761 26.952 159.761 26.904Z" fill="white"/>
<path d="M168.094 30H165.142V26.976H168.094V30Z" fill="white"/>
<defs>
<clipPath id="clip0">
<rect width="42" height="47" fill="white"/>
</clipPath>
</defs>
</svg>
